<svg width="30" height="30" viewBox="0 0 30 30" fill="none" xmlns="http://www.w3.org/2000/svg">
<g clip-path="url(#clip0_1216_436)">
<path d="M15 30C23.2843 30 30 23.2843 30 15C30 6.71573 23.2843 0 15 0C6.71573 0 0 6.71573 0 15C0 23.2843 6.71573 30 15 30Z" fill="#FF0420"/>
<path d="M10.626 18.9839C9.73198 18.9839 8.99998 18.7739 8.42998 18.3539C7.86598 17.9279 7.58398 17.3159 7.58398 16.5299C7.58398 16.3619 7.60198 16.1639 7.63798 15.9239C7.73398 15.3839 7.87198 14.7359 8.05198 13.9739C8.56198 11.9099 9.88198 10.8779 12.006 10.8779C12.582 10.8779 13.104 10.9739 13.56 11.1719C14.016 11.3579 14.376 11.6459 14.64 12.0299C14.904 12.4079 15.036 12.8579 15.036 13.3799C15.036 13.5359 15.018 13.7339 14.982 13.9739C14.868 14.6399 14.736 15.2939 14.574 15.9239C14.31 16.9499 13.86 17.7239 13.212 18.2339C12.57 18.7379 11.706 18.9839 10.626 18.9839ZM10.788 17.3639C11.208 17.3639 11.562 17.2379 11.856 16.9919C12.156 16.7459 12.372 16.3679 12.498 15.8519C12.672 15.1439 12.804 14.5319 12.894 14.0039C12.924 13.8479 12.942 13.6859 12.942 13.5179C12.942 12.8339 12.588 12.4919 11.874 12.4919C11.454 12.4919 11.094 12.6179 10.794 12.8639C10.5 13.1099 10.29 13.4879 10.164 14.0039C10.026 14.5079 9.89398 15.1199 9.75598 15.8519C9.72598 16.0019 9.70798 16.1579 9.70798 16.3259C9.70198 17.0219 10.068 17.3639 10.788 17.3639Z" fill="white"/>
<path d="M15.5579 18.8762C15.4739 18.8762 15.4139 18.8522 15.3659 18.7982C15.3299 18.7382 15.3179 18.6722 15.3299 18.5942L16.8839 11.2742C16.8959 11.1902 16.9379 11.1242 17.0099 11.0702C17.0759 11.0162 17.1479 10.9922 17.2259 10.9922H20.2199C21.0539 10.9922 21.7199 11.1662 22.2239 11.5082C22.7339 11.8562 22.9919 12.3542 22.9919 13.0082C22.9919 13.1942 22.9679 13.3922 22.9259 13.5962C22.7399 14.4602 22.3619 15.0962 21.7859 15.5102C21.2219 15.9242 20.4479 16.1282 19.4639 16.1282H17.9459L17.4299 18.5942C17.4119 18.6782 17.3759 18.7442 17.3039 18.7982C17.2379 18.8522 17.1659 18.8762 17.0879 18.8762H15.5579ZM19.5419 14.5742C19.8599 14.5742 20.1299 14.4902 20.3639 14.3162C20.6039 14.1422 20.7599 13.8962 20.8379 13.5722C20.8619 13.4462 20.8739 13.3322 20.8739 13.2362C20.8739 13.0202 20.8079 12.8522 20.6819 12.7382C20.5559 12.6182 20.3339 12.5582 20.0279 12.5582H18.6779L18.2519 14.5742H19.5419Z" fill="white"/>
</g>
<defs>
<clipPath id="clip0_1216_436">
<rect width="30" height="30" fill="white"/>
</clipPath>
</defs>
</svg>
