<svg width="30" height="30" viewBox="0 0 30 30" fill="none" xmlns="http://www.w3.org/2000/svg">
<g clip-path="url(#clip0_1216_482)">
<mask id="mask0_1216_482" style="mask-type:luminance" maskUnits="userSpaceOnUse" x="0" y="0" width="30" height="30">
<path d="M29.944 0.0556641H0V29.9997H29.944V0.0556641Z" fill="white"/>
</mask>
<g mask="url(#mask0_1216_482)">
<path d="M4.92821 13.232C4.91457 12.3644 5.19669 11.518 5.72821 10.832L11.1842 16.288C10.4965 16.8162 9.65129 17.0979 8.78421 17.088C7.76285 17.0838 6.78453 16.6762 6.06229 15.954C5.34005 15.2318 4.93245 14.2534 4.92821 13.232Z" fill="#133629"/>
<path d="M21.1601 17.0838C21.671 17.0859 22.1772 16.9869 22.6496 16.7925C23.122 16.5981 23.5512 16.3122 23.9126 15.9512C24.274 15.5901 24.5604 15.1612 24.7553 14.689C24.9502 14.2167 25.0497 13.7106 25.0481 13.1998C25.0577 12.3328 24.776 11.4877 24.2481 10.7998L18.7761 16.2718C19.4563 16.8039 20.2966 17.0901 21.1601 17.0838Z" fill="#133629"/>
<path d="M25.38 9.69167C26.2212 10.6794 26.6834 11.9343 26.684 13.2317C26.683 14.6908 26.1026 16.0897 25.0705 17.121C24.0384 18.1524 22.6391 18.7317 21.18 18.7317C19.8894 18.7332 18.6398 18.2784 17.652 17.4477L15.004 20.0957L12.356 17.4477C11.3675 18.2798 10.1161 18.7348 8.82401 18.7317C8.09989 18.7343 7.38233 18.594 6.71253 18.3189C6.04269 18.0437 5.43377 17.639 4.92061 17.1281C4.40745 16.6172 4.00013 16.01 3.72203 15.3414C3.44395 14.6728 3.30053 13.9558 3.30001 13.2317C3.30105 11.9403 3.75548 10.6903 4.58401 9.69967L3.34801 8.46367L2.16803 7.26367C0.746573 9.60075 -0.00355782 12.2843 1.2687e-05 15.0197C-0.000513152 16.9858 0.386433 18.9328 1.13871 20.7492C1.89098 22.5658 2.99385 24.2162 4.38429 25.6062C5.77473 26.9963 7.42549 28.0988 9.24217 28.8506C11.0589 29.6023 13.0059 29.9888 14.972 29.9877C18.9397 29.9866 22.7449 28.4111 25.552 25.607C28.3591 22.8029 29.9387 18.9994 29.944 15.0317C29.9687 12.2967 29.2259 9.60967 27.8 7.27567L25.38 9.69167Z" fill="#133629"/>
<path d="M25.8162 4.69566C24.42 3.22773 22.7396 2.05932 20.8774 1.26162C19.0152 0.463918 17.0101 0.0536042 14.9842 0.0556718C12.9579 0.0546914 10.9525 0.465478 9.08977 1.2631C7.22705 2.06072 5.54581 3.22854 4.14817 4.69566C3.78417 5.09566 3.42819 5.49566 3.09619 5.92366L14.9722 17.7957L26.8482 5.91166C26.5346 5.48146 26.1897 5.07502 25.8162 4.69566ZM14.9842 15.0237L5.78417 5.82366C6.98701 4.60802 8.42021 3.64438 9.99989 2.98916C11.5796 2.33394 13.274 2.00027 14.9842 2.00767C16.6947 1.99825 18.3897 2.331 19.9696 2.98633C21.5496 3.64167 22.9826 4.60638 24.1842 5.82366L14.9842 15.0237Z" fill="#133629"/>
</g>
</g>
<defs>
<clipPath id="clip0_1216_482">
<rect width="30" height="30" fill="white"/>
</clipPath>
</defs>
</svg>
