<svg width="30" height="30" viewBox="0 0 30 30" fill="none" xmlns="http://www.w3.org/2000/svg">
<g clip-path="url(#clip0_1216_417)">
<path d="M2.71216 9.11972V20.8797C2.71216 21.6357 3.10816 22.3197 3.76816 22.7037L13.9562 28.5837C14.6042 28.9557 15.4082 28.9557 16.0562 28.5837L26.2442 22.7037C26.8922 22.3317 27.3002 21.6357 27.3002 20.8797V9.11972C27.3002 8.36372 26.9042 7.67972 26.2442 7.29572L16.0562 1.41572C15.4082 1.04372 14.6042 1.04372 13.9562 1.41572L3.76816 7.29572C3.12016 7.66772 2.72416 8.36372 2.72416 9.11972H2.71216Z" fill="#213147"/>
<path d="M17.2202 17.2802L15.7682 21.2642C15.7322 21.3722 15.7322 21.4922 15.7682 21.6122L18.2642 28.4642L21.1562 26.7962L17.6882 17.2802C17.6042 17.0642 17.3042 17.0642 17.2202 17.2802Z" fill="#12AAFF"/>
<path d="M20.1362 10.5839C20.0522 10.3679 19.7522 10.3679 19.6682 10.5839L18.2162 14.5679C18.1802 14.6759 18.1802 14.7959 18.2162 14.9159L22.3082 26.1359L25.2002 24.4679L20.1362 10.5959V10.5839Z" fill="#12AAFF"/>
<path d="M15.0001 1.86C15.0721 1.86 15.1441 1.884 15.2041 1.92L26.2201 8.28C26.3521 8.352 26.4241 8.496 26.4241 8.64V21.36C26.4241 21.504 26.3401 21.648 26.2201 21.72L15.2041 28.08C15.1441 28.116 15.0721 28.14 15.0001 28.14C14.9281 28.14 14.8561 28.116 14.7961 28.08L3.7801 21.72C3.6481 21.648 3.5761 21.504 3.5761 21.36V8.628C3.5761 8.484 3.6601 8.34 3.7801 8.268L14.7961 1.908C14.8561 1.872 14.9281 1.848 15.0001 1.848V1.86ZM15.0001 0C14.6041 0 14.2201 0.096 13.8601 0.3L2.8441 6.66C2.1361 7.068 1.7041 7.812 1.7041 8.628V21.348C1.7041 22.164 2.1361 22.908 2.8441 23.316L13.8601 29.676C14.2081 29.88 14.6041 29.976 15.0001 29.976C15.3961 29.976 15.7801 29.88 16.1401 29.676L27.1561 23.316C27.8641 22.908 28.2961 22.164 28.2961 21.348V8.628C28.2961 7.812 27.8641 7.068 27.1561 6.66L16.1281 0.3C15.7801 0.096 15.3841 0 14.9881 0H15.0001Z" fill="#9DCCED"/>
<path d="M7.7041 26.1483L8.7241 23.3643L10.7641 25.0563L8.8561 26.8083L7.7041 26.1483Z" fill="#213147"/>
<path d="M14.064 7.72782H11.268C11.064 7.72782 10.872 7.85982 10.8 8.05182L4.81201 24.4678L7.70401 26.1358L14.304 8.05182C14.364 7.88382 14.244 7.71582 14.076 7.71582L14.064 7.72782Z" fill="white"/>
<path d="M18.96 7.72782H16.164C15.96 7.72782 15.768 7.85982 15.696 8.05182L8.85596 26.7958L11.748 28.4638L19.188 8.05182C19.248 7.88382 19.128 7.71582 18.96 7.71582V7.72782Z" fill="white"/>
</g>
<defs>
<clipPath id="clip0_1216_417">
<rect width="30" height="30" fill="white"/>
</clipPath>
</defs>
</svg>
