<svg width="30" height="27" fill="none" xmlns="http://www.w3.org/2000/svg">
  <path d="M14.888.062c-.082.09-.086.266-.008.45.051.122.055.392.04 1.85-.016 1.703-.016 1.707-.11 1.91-.114.248-.595.964-.705 1.05-.067.055-.239.071-1.034.095-1.148.035-1.14.031-1.175.446l-.024.25-.094-.105a.88.88 0 0 1-.133-.286l-.047-.176-.317.027c-.349.028-1.113.212-1.379.33-.31.136-.302.101-.294 1.676.008 1.08.02 1.422.063 1.5.031.059.168.164.329.25.447.247.411.063.4 2.257a93.43 93.43 0 0 1-.02 1.907 5.129 5.129 0 0 1-.423-.125c-.607-.196-.71-.207-.83-.086-.09.09-.102.133-.102.392 0 .239-.012.297-.067.317-.035.016-.074.012-.09-.004-.063-.07-.118-.313-.118-.529 0-.286-.027-.337-.278-.537-.313-.25-1.136-1.143-1.214-1.316-.059-.133-.074-.32-.094-1.233-.02-1.034-.02-1.085.063-1.305.082-.215.082-.23.02-.391a.867.867 0 0 0-.177-.279l-.113-.11-.071.193c-.078.2-.094.505-.043.79.027.165.027.17-.059.146a3.075 3.075 0 0 0-.423-.047c-.294-.024-.368-.012-.627.078-.481.173-.556.18-.96.11-.344-.059-.371-.059-.552.012-.223.082-.544.376-.673.603-.106.188-.133.184.454.094.415-.059.454-.059.654.004.243.074.27.121.098.16-.062.016-.117.043-.117.063 0 .043.07.059.705.153.619.09.905.098 1.253.023.141-.031.259-.05.267-.043.035.032.011.803-.028.901a1.511 1.511 0 0 1-.243.321c-.106.11-.192.227-.192.259 0 .031-.058.094-.133.137-.29.172-.439.51-.482 1.07l-.023.348h.278c.376 0 .474.11.36.407-.035.102-.035.102.16.102h.2l-.101.176-.102.173.145.039c.082.023.22.055.305.074l.157.032-.176.094a2.73 2.73 0 0 1-.392.156l-.215.07.156.067c.138.06.196.063.47.024.173-.024.65-.043 1.062-.043h.752l.02-.11c.05-.262.058-.25-.165-.325-.27-.094-.356-.172-.356-.321 0-.07-.036-.16-.083-.212-.082-.082-.16-.481-.098-.481.067 0 .259.125.298.191.02.043.04.134.04.2 0 .259.125.337.61.38.267.02.286.016.33-.066.046-.09.035-.384-.02-.525-.032-.07-.02-.075.22-.047.332.039.638.176.716.333.05.094.063.262.063.889v.768l-.126-.024c-.07-.016-.72-.035-1.441-.047-2.3-.043-3.318.094-4.07.552-.368.22-.505.251-.736.153l-.177-.074.004-1.109c.004-.61.024-1.148.043-1.198.051-.142.243-.255.498-.298.125-.024.274-.047.337-.059l.106-.02v.494c0 .384.011.49.05.474.028-.008.185-.047.353-.086l.302-.067v-.243c0-.129.011-.438.027-.685l.024-.447-.431.028c-.537.035-1.105.149-1.34.27a.86.86 0 0 0-.27.223c-.086.13-.086.145-.086 1.45 0 .728-.012 1.374-.024 1.437-.02.11-.008.121.231.243.4.204.42.235.466.756.024.274.028.838.008 1.48a124.26 124.26 0 0 0-.035 1.763c-.004.494-.028.83-.07 1.058-.075.38-.185 1.304-.185 1.563 0 .227-.121.47-.29.583-.125.086-1.01.42-1.637.62-.321.101-.376.144-.31.226.036.043-.066.106-.493.314-.576.282-.889.493-1.034.693l-.09.125.313-.027c.169-.016.513-.063.76-.102.25-.043.69-.102.98-.137.556-.059 2.036-.125 2.036-.09 0 .012-.129.102-.286.2a2.513 2.513 0 0 0-.356.258c-.075.082-.075.082.02.082.05 0 .325-.035.603-.074.63-.094 1.269-.149 2.409-.2a26.935 26.935 0 0 0 1.19-.078c.173-.024.357-.04.412-.04l.102.005-.118.098c-.255.219-1.37.709-1.872.818-.251.055-.298.079-.259.122.063.078.404.07.893-.024.227-.043.901-.157 1.493-.255.591-.097 1.284-.219 1.535-.27.25-.047.45-.074.439-.058-.008.015-.16.113-.341.215-.403.231-.576.364-.666.52-.07.122-.07.122.02.122.192 0 .622-.086 1.147-.23.807-.224 1.156-.299 2.276-.494 1.3-.228 1.63-.247 2.816-.141.514.047 1.164.082 1.442.082.34 0 .623.023.881.074.208.043.646.098.972.118.689.047 1.598.211 2.553.458.377.094.729.173.784.173.098-.004.078-.032-.22-.318a2.42 2.42 0 0 0-.724-.505 3.56 3.56 0 0 0-.545-.22c-.176-.03-.195-.093-.031-.093.192 0 2.26.423 2.957.603.126.035.267.063.314.063.125-.005-.18-.247-.568-.447-.6-.313-.607-.306.313-.282 1.109.031 1.986.121 2.703.278.337.074.705.145.822.16l.216.024-.153-.16a1.466 1.466 0 0 0-.31-.235c-.09-.047-.133-.087-.105-.102.027-.016.51-.032 1.07-.032.974-.004 1.48.036 1.973.153l.11.027-.117-.129c-.224-.239-1.642-.881-1.885-.854-.086.012-.137-.004-.152-.039-.036-.094-.02-.125.058-.125.04 0 .169-.02.282-.043l.204-.047-.114-.09a1.523 1.523 0 0 0-.29-.157 5.242 5.242 0 0 1-.454-.212 7.195 7.195 0 0 0-.642-.297c-.407-.173-.65-.353-.74-.56-.04-.09-.07-.353-.09-.729-.02-.325-.051-.736-.075-.92-.05-.408-.098-3.741-.059-4.356l.028-.447.176-.047a.772.772 0 0 0 .286-.156l.11-.11.015-1.41c.02-1.504.016-1.547-.172-1.68-.192-.134-1.034-.345-1.57-.396l-.302-.027v.63c0 .619 0 .63.102.748a.617.617 0 0 0 .301.18c.11.032.204.06.212.06a5.4 5.4 0 0 0 .011-.53c0-.29.004-.528.012-.528s.16.05.34.117c.185.063.42.13.526.141.192.028.192.028.11.098-.087.067-.087.086-.087 1.19 0 .698-.015 1.152-.039 1.2-.059.105-.188.093-.392-.048-.517-.348-.924-.474-2.185-.67-.74-.113-.893-.12-1.77-.125-.812 0-1.054.012-1.556.087-.329.05-.642.086-.705.078-.18-.02-.211-.149-.22-.85-.007-.74.013-.787.385-.932.125-.047.258-.114.293-.15.063-.058.075-.05.134.075.035.075.062.231.062.357 0 .188.012.219.063.2a.5.5 0 0 1 .137-.024c.067 0 .074-.032.074-.231 0-.192.016-.255.102-.353.114-.133.298-.2.58-.2h.188l-.027.263-.028.258.212-.023c.113-.016.246-.027.293-.027.071 0 .087-.032.11-.196l.028-.196h.16c.09 0 .184.015.208.031.082.055.133.2.133.392 0 .227-.074.313-.298.345-.086.011-.215.027-.29.039l-.133.023.212.13.207.129-.156.027a.458.458 0 0 0-.251.122c-.047.05-.082.094-.07.094.007.004.376.02.818.039.643.027.917.059 1.363.152.31.067.6.13.643.146.18.054-.098-.228-.435-.451l-.337-.22.247-.011.243-.012v-1.476l-.13-.189a10.304 10.304 0 0 1-.301-.481 3.596 3.596 0 0 0-.392-.533c-.38-.407-.384-.427-.43-1.582l-.032-.882.094-.254c.07-.18.09-.302.074-.396-.031-.196-.18-.588-.219-.588-.047 0-.22.353-.25.517a.797.797 0 0 0 .035.345c.05.169.062.415.062 1.289 0 1.288.024 1.202-.52 1.83-.553.637-.714.755-1.16.837a10.72 10.72 0 0 0-.932.274c-.38.13-.698.228-.71.216-.058-.055-.082-.748-.046-1.371.02-.388.047-1.152.054-1.696.012-.736.028-1.003.067-1.05.027-.031.157-.11.286-.168.423-.196.396-.07.384-1.7-.016-1.614-.004-1.56-.34-1.684a5.94 5.94 0 0 0-1.211-.286l-.298-.028v.615c0 .697.035.834.243.964.176.105.106.098-.27-.036-.388-.137-.388-.137-.466-.286-.047-.09-.06-.18-.04-.34.07-.658.07-.686-.008-.811-.144-.223-.505-.33-1.143-.33-.45 0-.545-.05-.643-.336-.031-.098-.152-.286-.262-.42-.317-.38-.364-.516-.345-1.006.008-.227.012-.634.008-.905l-.008-.497.165.04c.207.046.43.023.956-.11.5-.126.732-.118 1.245.046.321.102.404.114.901.114.478 0 .6-.016.94-.11.215-.058.462-.156.548-.215l.157-.106-.548-.023c-.6-.032-.842-.09-1.093-.27l-.149-.114.157-.047a.917.917 0 0 0 .49-.384c.066-.118.066-.121 0-.121-.04.003-.177.027-.306.058-.317.079-.54.075-1.222-.023-.694-.098-1.093-.086-1.81.062-.266.055-.49.098-.497.098-.028 0 .035-.419.086-.603.05-.176.047-.207-.016-.333-.078-.16-.196-.2-.294-.09Zm-.336 5.88c.09.07.094.101.105.603.016.591.024.575-.313.575h-.145l.004-.54c.004-.294-.008-.576-.024-.627-.027-.078-.015-.086.126-.086.094 0 .192.027.247.074Zm-2.002.039c.133.254.125 1.053-.024 1.563-.098.336-.098.336-.352.364-.278.027-1.018.239-1.289.368-.27.125-.137.121.45-.023.541-.13 1.27-.189 1.748-.134.266.032.266.032.152.083a.793.793 0 0 1-.215.054c-.114.004-.454.15-.423.18.035.032 1.038-.062 1.559-.148.83-.137 1.86-.063 3.075.223.693.165 1.194.302 1.194.333 0 .055-.227.074-.477.04-.138-.02-1.352-.04-2.7-.044-2.114-.008-2.498 0-2.855.055-.548.086-1.492.184-1.774.184a1.18 1.18 0 0 1-.364-.059c-.24-.098-.251-.18-.251-1.476V6.396l.474-.13c.262-.07.486-.117.501-.105.012.016.028.243.036.51l.015.48.204-.093c.113-.051.325-.122.466-.157l.262-.066V6.69c0-.079.012-.278.024-.443l.027-.298.22-.015c.121-.008.23-.016.246-.02.016-.004.047.027.07.067Zm3.47.062c.036.09.055.275.055.549 0 .462-.05.568-.27.568-.239 0-.239-.004-.239-.545 0-.619.012-.662.172-.681.067-.008.145-.02.173-.02.027-.004.078.055.11.13Zm3.322.267.231.082-.024.783c-.015.435-.027.968-.027 1.183 0 .33-.012.415-.07.49-.106.125-.279.113-.525-.043-.114-.07-.349-.208-.517-.302a3.507 3.507 0 0 1-.333-.192c-.012-.011.113-.011.282.004.29.028.31.024.329-.055.012-.043.035-.082.055-.082.015 0 .004-.074-.032-.168-.047-.134-.058-.325-.054-.987.003-.455.015-.854.027-.89.02-.062.035-.062.223.016.114.043.31.118.435.16Zm-3.796 1.08c.012.02.004.048-.02.063-.019.012-.038-.003-.038-.035 0-.07.023-.082.058-.027Zm-2.8.592c0 .02-.02.04-.043.04-.02 0-.028-.02-.016-.04.012-.023.031-.039.043-.039.008 0 .016.016.016.04Zm4.36 1.046a.296.296 0 0 1-.118 0c-.04-.012-.016-.02.047-.02.066 0 .094.008.07.02Zm-4.055.33c.15.05.184.152.15.403l-.028.172-.545.027c-.301.016-.548.043-.548.063 0 .02.043.035.098.035.094 0 .098.008.098.274v.275l-.243.004c-.227.003-.235.007-.114.043.07.02.173.062.224.098.09.054.094.054.133-.048.035-.094.055-.105.16-.082.07.012.2.024.294.024h.172l.004.243.008.246.04-.246c.035-.228.046-.243.14-.243.169.004.404.07.44.125.066.098.034.27-.064.364-.09.094-.117.098-.548.098-.454 0-.58-.027-.674-.152-.039-.055-.054-.051-.129.043-.09.117-.282.172-.466.129-.114-.024-.122-.035-.122-.212 0-.191.044-.278.177-.348.063-.035.027-.043-.184-.047-.153 0-.267.015-.267.039 0 .02.036.04.079.04.07 0 .078.027.078.215 0 .18-.02.23-.117.344l-.118.133.701.02c.58.016.729.035.85.094.133.063.153.094.165.22.011.125.027.148.105.148.051 0 .141.04.2.09.086.075.11.133.126.314l.015.223h-1.12c-.72 0-1.12.016-1.12.04 0 .019.07.038.156.038.145 0 .157.008.157.106 0 .125-.13.427-.223.529-.059.066-.043.07.333.07h.4v.228c0 .281-.063.352-.35.387-.219.024-.246.055-.11.118a.36.36 0 0 1 .142.145c.09.164.02.297-.212.415l-.195.098.282.012.278.011.015.173c.016.215-.023.411-.094.454-.027.02-.121.059-.207.086-.145.043-.114.047.391.059.302.004.69-.008.862-.027.172-.02.33-.024.349-.004a.545.545 0 0 1 .05.207l.02.18-.278.028c-.266.023-.278.031-.215.098.117.133.168.36.172.787 0 .513-.039.58-.348.58-.102 0-.298.011-.435.027l-.243.024.023-.122c.075-.384.083-.348-.09-.376-.223-.035-.329.02-.415.22-.137.317-.266.38-.454.23l-.098-.074-.008-3.027a238.5 238.5 0 0 0-.031-3.76c-.036-1.05-.016-1.09.622-1.125l.341-.016v.188c-.004.106-.02.27-.039.369l-.031.176.074-.094c.051-.063.075-.153.075-.294 0-.211.039-.294.176-.372.098-.059.916-.027 1.108.04Zm5.488-.028c.22.117.211-.047.204 4.073-.004 2.386-.024 3.823-.047 3.866-.055.106-.18.16-.38.165-.227 0-.322-.102-.322-.349v-.172h-.262c-.595 0-.693-.094-.67-.646l.016-.372h-.114c-.168 0-.242-.098-.23-.306a.597.597 0 0 1 .027-.196c.008-.012.235.012.497.047.517.067.972.082.909.032a.954.954 0 0 0-.223-.102c-.247-.094-.29-.184-.228-.474l.047-.216.322-.004c.297-.004.309-.008.176-.047-.082-.023-.149-.054-.149-.074 0-.016-.13-.031-.282-.031-.157 0-.352-.012-.43-.024l-.15-.027v-.549l.302.028c.525.047.505.035.552.31l.043.242-.02-.243c-.015-.207-.007-.243.052-.258.047-.012.004-.047-.145-.114-.263-.121-.314-.18-.341-.376-.031-.223.047-.282.38-.282h.266l-.13-.13a.715.715 0 0 1-.16-.234c-.035-.15.07-.302.212-.306a.644.644 0 0 0 .184-.031c.059-.024.016-.043-.18-.079a3.23 3.23 0 0 0-.42-.043h-.164v-.497l-.184-.027c-.27-.036-.298-.063-.266-.263l.023-.172.474.011c.364.012.482.004.505-.039.055-.086.043-.105-.125-.148l-.16-.044.023-.242a6.81 6.81 0 0 1 .047-.326c.02-.074 0-.086-.188-.11-.29-.038-.384-.109-.384-.281 0-.212.059-.29.22-.29.219 0 .356-.165.391-.466l.028-.24h.172c.094 0 .22.024.282.056Zm-11.473.509c0 .012-.015.031-.039.043-.02.012-.04.004-.04-.016 0-.023.02-.043.04-.043.024 0 .04.008.04.016Zm6.357.266c.051.028.067.086.067.29 0 .231-.008.255-.067.231a2.615 2.615 0 0 0-.434-.05c-.349-.02-.365-.024-.345-.103.012-.047.023-.168.023-.27v-.192l.345.028c.188.015.372.047.411.066Zm.42.925c0 .058-.008.058-.04.008-.05-.079-.05-.13 0-.098.024.011.04.054.04.09Zm.027.603c-.012.031-.023.02-.023-.024-.005-.043.007-.066.019-.05.012.011.016.046.004.074Zm3.94.916.145.028v.568l-.329-.008c-.372-.004-.376-.008-.376-.313 0-.27.141-.341.56-.275Zm-5.777.04c.168.047.266.391.157.532-.067.082-.255.114-.498.082l-.2-.023v-.22c0-.12.016-.242.036-.27.058-.094.329-.148.505-.101Zm1.038.003a.667.667 0 0 1-.176 0c-.051-.007-.012-.015.086-.015.098 0 .137.008.09.015Zm.38.224c0 .129-.024.203-.094.286-.086.101-.118.11-.36.11h-.267l-.059-.185c-.043-.145-.047-.207-.011-.286.043-.094.058-.098.419-.098h.372v.173Zm1.45.34c0 .153 0 .153-.158.153-.152 0-.156-.004-.113-.09.066-.129.2-.262.235-.239.02.012.035.09.035.176Zm.403.032.074.121h-.321v-.18c0-.18 0-.18.09-.125a.678.678 0 0 1 .157.184Zm-2.198.247c.008.25-.012.4-.055.45-.027.035-.184.051-.525.051h-.485v-.623l.246-.015c.134-.008.373-.016.53-.02l.281-.008.008.165Zm-3.905.07c.012.02.004.04-.016.04-.023 0-.043-.02-.043-.04 0-.023.008-.039.016-.039.012 0 .031.016.043.04Zm5.7.157v.196h-.275v-.392h.274v.196Zm.43 0v.196h-.274v-.392h.274v.196Zm-4.634.38c-.008.062-.015.011-.015-.106 0-.117.007-.168.015-.11a.983.983 0 0 1 0 .216Zm1.677.07a.305.305 0 0 1 .098.216c0 .062.02.117.039.117.023 0 .039-.098.039-.215 0-.25.055-.274.278-.126.212.138.286.337.302.796l.015.395-.501.028a6.94 6.94 0 0 0-.65.05l-.15.024v-.701l.189-.055.184-.059-.22-.011-.219-.012-.027-.18c-.051-.376-.059-.365.25-.365.243 0 .29.012.373.098Zm1.175.803c.011.02.004.04-.016.04-.023 0-.043-.02-.043-.04 0-.023.008-.039.016-.039.011 0 .031.016.043.04Zm2.123.98h.207v.188c0 .105-.011.38-.027.607l-.024.419h-.524l-.028-.502a8.433 8.433 0 0 0-.05-.642l-.02-.145.129.035c.074.024.227.04.337.04Zm5.585-.051a.666.666 0 0 1-.176 0c-.05-.008-.012-.016.086-.016.098 0 .137.008.09.016Zm-7.023.638v.548h-.38l-.023-.481a4.836 4.836 0 0 0-.047-.549c-.024-.059 0-.066.211-.066h.24v.548Zm-4.042-.349.204.047v.58c0 .552-.004.584-.087.666-.078.07-.125.078-.376.063a1.245 1.245 0 0 1-.305-.04c-.02-.02.282-.947.392-1.206.02-.04-.012-.078-.102-.125-.141-.075-.137-.075.274.015Zm6.498.102c-.012.04-.02.016-.02-.047 0-.066.008-.094.02-.07a.297.297 0 0 1 0 .117Zm3.228.133c.568.283.799.823.842 1.967.02.532.07.909.13.944.015.012.019-.094.01-.231l-.015-.251.13.035c.074.024.18.04.238.04.18 0 .118.262-.094.391-.121.07-.121.078-.035.078s.09.012.075.216c-.02.239-.098.356-.267.392l-.105.023.074.145c.121.231.082 1.038-.102 1.966-.176.89-.168.862-.258.862-.04 0-.087.02-.102.043-.043.07-.094-.047-.094-.223 0-.09.02-.259.043-.372.02-.118.047-.423.055-.682.011-.258.035-.736.054-1.057.055-.792.055-1.583-.003-2.433l-.047-.709-.517-.05c-.286-.028-.6-.04-.694-.028l-.176.023.055-.18c.031-.098.055-.325.055-.505 0-.392.015-.443.172-.505.149-.067.294-.04.576.101Zm-14.34.345v.196l.207.024c.31.039.314.047.282.364l-.027.274-.18.023c-.102.012-.33.036-.506.047l-.325.028-.004-.172a1.51 1.51 0 0 0-.03-.27c-.024-.08-.036-.048-.056.14-.011.13-.035.267-.05.302-.02.055 0 .066.117.066h.14v.333c0 .325-.003.333-.093.333s-.094.008-.075.251c.02.212.008.278-.058.392l-.083.14h.169c.247 0 .356.103.352.322 0 .09-.03.227-.07.294-.075.148-.125.133.486.145.45.008.571.055.65.242.137.33-.122.514-.646.463l-.24-.028v-.305c0-.18-.015-.31-.039-.31-.023 0-.039.122-.039.286v.29l-.223.035c-.223.04-.223.04-.118.087a.987.987 0 0 0 .318.047c.247 0 .258.015.258.462 0 .239-.011.29-.066.305-.137.043-.49.216-.474.231.011.012.337 0 .728-.027a8.9 8.9 0 0 1 .733-.027.77.77 0 0 1-.04.23c-.03.118-.113.486-.176.815-.14.721-.184.811-.384.866a1.125 1.125 0 0 1-.191.043c-.028 0-.051.04-.051.086-.004.27-.279.576-.576.639-.122.023-.122.02-.184-.192-.067-.231-.141-.321-.141-.173 0 .15-.18.486-.306.576-.121.086-.38.208-.544.255l-.083.027.09-.29c.118-.372.2-.854.255-1.496.024-.282.07-.771.102-1.097.043-.438.055-1.128.055-2.777-.004-2.095 0-2.197.07-2.291.102-.137.365-.267.674-.333.404-.086.392-.09.392.13Zm5.092.227c-.04.063-.043.06-.024-.027.012-.055.028-.141.028-.196.008-.074.011-.07.023.027a.364.364 0 0 1-.027.196Zm14.653-.121c.204.102.204.102.169 1.061-.04.976-.04.929.027 2.742.027.694.059 1.254.074 1.246.012-.008.044.305.07.697.024.392.099 1.03.165 1.418.161.968.165.948-.11.807-.21-.11-.317-.243-.399-.497l-.07-.232-.07.134c-.134.242-.24.329-.38.301-.416-.082-.412-.078-.44-.352a1.31 1.31 0 0 1-.003-.33c.023-.07.004-.09-.134-.125-.219-.058-.313-.16-.313-.344-.004-.447-.078-1.415-.117-1.512a.371.371 0 0 1-.032-.126c.008-.004.216.016.462.043.247.032.506.055.568.055l.118.004-.118-.078c-.188-.122-.297-.349-.32-.686l-.024-.294h.419c.384 0 .415-.003.384-.07-.079-.145-.169-.642-.126-.693.032-.04-.043-.055-.34-.075a15.394 15.394 0 0 1-.549-.047l-.168-.023v-.533l.372-.027c.325-.024.364-.036.337-.094a2.556 2.556 0 0 1-.079-.259c-.027-.11-.054-.223-.066-.258-.016-.051.023-.07.188-.09.34-.044.462-.071.462-.102 0-.043-.325-.079-.372-.04-.094.079-.333-.2-.333-.387 0-.106.18-.24.329-.24.094 0 .106-.01.063-.038a.778.778 0 0 0-.274-.04h-.216v-.274c0-.18.016-.274.043-.274.028 0 .145.051.267.114l.219.117v-.29c0-.438.023-.458.317-.31Zm-14.152.67a.404.404 0 0 1-.137 0c-.04-.012-.008-.02.067-.02.074 0 .105.008.07.02Zm-5.284.87c.04.023.047.085.024.242-.04.31-.051.345-.177.408-.148.078-.466.074-.58-.004-.12-.083-.117-.325.005-.47.078-.09.133-.11.337-.126.133-.008.25-.031.262-.05.027-.044.059-.044.13 0Zm10.62.27c0 .14.023.258.058.309.082.117.325.176.572.145l.203-.027-.027.152c-.016.083-.09.255-.165.376l-.137.224-.008 1.147-.007 1.148.168.356c.09.196.165.376.165.4 0 .035-.216.047-.784.047-.552 0-.783-.012-.783-.043 0-.024.066-.188.149-.364l.145-.318v-.724c0-.674-.008-.74-.09-.92-.192-.416-.545-.647-.991-.647-.49 0-.839.207-1.042.619-.106.215-.11.25-.122.893l-.015.666.16.376c.09.203.16.395.16.419 0 .031-.226.043-.783.043-.556 0-.783-.012-.783-.043 0-.024.05-.137.114-.247.2-.356.219-.525.207-1.724-.008-1.006-.016-1.104-.086-1.214-.153-.243-.188-.325-.22-.47l-.027-.152.212.023c.258.031.482-.024.564-.141.035-.05.059-.172.059-.31v-.227h3.133v.227Zm4.504.023c0 .012-.016.031-.04.043-.02.012-.039.004-.039-.015 0-.024.02-.044.04-.044.023 0 .039.008.039.016Zm-16.66.168c-.011.04-.019.016-.019-.047 0-.066.008-.093.02-.07a.296.296 0 0 1 0 .117Zm19.989 1.148c0 .02-.008.04-.016.04-.011 0-.031-.02-.043-.04-.011-.023-.004-.039.016-.039.023 0 .043.016.043.04Zm.474.063c.078.02.137.157.207.45l.052.216h-.326l-.32-.004-.024-.255a6.519 6.519 0 0 1-.024-.368c0-.11 0-.11.188-.086.102.015.212.035.247.047ZM6.557 21.613a.04.04 0 0 1-.04.04c-.019 0-.038-.02-.038-.04 0-.023.02-.039.039-.039.023 0 .039.016.039.04Zm14.661.623c-.031.137-.113.294-.18.349-.047.039-.059.02-.082-.134-.043-.317-.04-.317.133-.317.149 0 .153.004.13.102Zm.576.588c.023.062.04.148.031.188-.023.121-.227-.114-.227-.263 0-.106.008-.113.075-.082.039.023.094.094.121.157Zm-15.006.52c-.004.232-.074.51-.133.53a.136.136 0 0 1-.09-.024c-.043-.024-.04-.079.008-.294.105-.454.223-.564.215-.211Zm19.902.541c0 .02-.008.04-.016.04-.011 0-.03-.02-.043-.04-.011-.023-.003-.04.016-.04.024 0 .043.017.043.04Zm.118.392c0 .02-.02.039-.043.039-.02 0-.028-.02-.016-.04.012-.023.031-.038.043-.038.008 0 .016.015.016.039ZM2.084 25.4c-.106.008-.27.008-.372 0-.106-.008-.02-.012.184-.012.203 0 .29.004.188.012Zm24.634.31c-.012.011-.047.015-.075.003-.031-.011-.02-.023.024-.023.043-.004.066.008.05.02Zm-15.684.748a.294.294 0 0 1-.117 0c-.04-.012-.016-.02.047-.02.066 0 .094.008.07.02Z" fill="#00B1CC"/>
  <path d="M11.434 11.86c-.016.024.023.04.094.04h.117l.016.262.011.266.008-.266.008-.263h.333c.196 0 .333-.015.333-.039s-.176-.04-.446-.04c-.259 0-.459.016-.474.04ZM11.551 15.953c-.102.098-.121.243-.074.537l.027.149h.47l-.027-.18a4.111 4.111 0 0 1-.024-.392v-.212h-.137a.302.302 0 0 0-.235.098ZM17.524 16.224v.415h.47v-.784h-.113c-.063 0-.169-.011-.235-.023l-.122-.028v.42ZM4.99 16.995c0 .07.008.075.059.035.059-.047.047-.117-.024-.117-.02 0-.035.039-.035.082ZM5.284 22.816c.059.149.063.47.008.666l-.055.207.239-.004c.133-.004.192-.015.133-.023-.121-.02-.121-.012-.11-.611l.004-.302h-.121c-.106 0-.121.012-.098.067ZM24.571 22.847c.13.149.13.153.114.478-.016.317-.016.325.074.325s.09-.008.067-.266a1.819 1.819 0 0 1 .015-.427c.043-.184.047-.18-.246-.231l-.157-.028.133.15Z" fill="#00B1CC"/>
</svg>
