<svg width="500" height="500" viewBox="0 0 500 500" fill="none" xmlns="http://www.w3.org/2000/svg">
<path d="M248.512 30.8281C247.415 32.0302 247.363 34.3821 248.407 36.8387C249.086 38.4589 249.138 42.0653 248.929 61.5082C248.72 84.2439 248.72 84.2962 247.467 87.014C245.952 90.3068 239.529 99.8714 238.066 101.021C237.178 101.753 234.881 101.962 224.279 102.276C208.976 102.746 209.081 102.694 208.611 108.234L208.297 111.579L207.044 110.168C206.417 109.384 205.582 107.659 205.268 106.352L204.642 104L200.411 104.366C195.763 104.732 185.579 107.189 182.028 108.757C177.902 110.586 178.006 110.116 178.111 131.127C178.215 145.552 178.372 150.099 178.946 151.144C179.364 151.928 181.192 153.34 183.333 154.489C189.287 157.782 188.817 155.326 188.66 184.595C188.608 198.55 188.451 209.996 188.399 210.048C188.347 210.1 185.84 209.369 182.759 208.376C174.664 205.762 173.306 205.606 171.687 207.226C170.486 208.428 170.329 209.003 170.329 212.452C170.329 215.641 170.172 216.425 169.441 216.686C168.971 216.895 168.449 216.843 168.24 216.634C167.404 215.693 166.673 212.452 166.673 209.578C166.673 205.762 166.308 205.083 162.965 202.417C158.787 199.072 147.82 187.156 146.775 184.856C145.992 183.079 145.783 180.57 145.522 168.392C145.26 154.594 145.26 153.914 146.357 150.988C147.454 148.113 147.454 147.904 146.618 145.761C146.148 144.507 145.104 142.834 144.268 142.05L142.754 140.587L141.814 143.148C140.769 145.813 140.56 149.89 141.239 153.705C141.605 155.901 141.605 155.953 140.456 155.639C139.777 155.43 137.27 155.169 134.815 155.012C130.898 154.698 129.906 154.855 126.459 156.057C120.035 158.357 119.043 158.462 113.664 157.521C109.068 156.737 108.702 156.737 106.3 157.678C103.323 158.775 99.0403 162.695 97.3169 165.727C95.9068 168.235 95.5412 168.183 103.375 166.981C108.911 166.197 109.433 166.197 112.097 167.033C115.335 168.026 115.7 168.653 113.403 169.176C112.567 169.385 111.836 169.751 111.836 170.012C111.836 170.587 112.776 170.796 121.236 172.051C129.488 173.253 133.301 173.357 137.949 172.364C139.829 171.946 141.396 171.685 141.5 171.789C141.97 172.208 141.657 182.504 141.135 183.811C140.769 184.647 139.359 186.581 137.897 188.096C136.486 189.56 135.338 191.128 135.338 191.546C135.338 191.964 134.554 192.8 133.562 193.375C129.697 195.675 127.712 200.17 127.138 207.644L126.825 212.296H130.533C135.546 212.296 136.852 213.759 135.338 217.731C134.867 219.09 134.867 219.09 137.479 219.09H140.142L138.784 221.442L137.427 223.742L139.359 224.265C140.456 224.578 142.284 224.996 143.433 225.258L145.522 225.676L143.171 226.93C141.866 227.61 139.516 228.55 137.949 229.021L135.076 229.962L137.165 230.85C138.993 231.634 139.777 231.686 143.433 231.164C145.731 230.85 152.102 230.589 157.586 230.589H167.613L167.874 229.125C168.553 225.623 168.658 225.78 165.681 224.787C162.077 223.533 160.928 222.487 160.928 220.501C160.928 219.561 160.458 218.358 159.832 217.679C158.735 216.581 157.69 211.25 158.526 211.25C159.414 211.25 161.973 212.923 162.495 213.811C162.756 214.386 163.017 215.588 163.017 216.477C163.017 219.926 164.689 220.972 171.165 221.547C174.716 221.808 174.977 221.756 175.552 220.658C176.178 219.456 176.022 215.536 175.291 213.655C174.873 212.714 175.029 212.661 178.215 213.027C182.654 213.55 186.728 215.379 187.773 217.47C188.451 218.724 188.608 220.972 188.608 229.334V239.578L186.937 239.265C185.997 239.056 177.327 238.794 167.718 238.638C137.061 238.063 123.482 239.892 113.455 246.007C108.545 248.934 106.718 249.352 103.636 248.046L101.286 247.052L101.338 232.261C101.391 224.108 101.652 216.947 101.913 216.268C102.592 214.386 105.151 212.871 108.545 212.296C110.217 211.982 112.201 211.668 113.037 211.512L114.447 211.25V217.836C114.447 222.958 114.604 224.369 115.126 224.16C115.492 224.055 117.581 223.533 119.826 223.01L123.848 222.122V218.881C123.848 217.156 124.004 213.027 124.213 209.735L124.527 203.776L118.782 204.142C111.627 204.613 104.054 206.128 100.92 207.748C99.6148 208.428 97.9958 209.735 97.3169 210.728C96.1679 212.452 96.1679 212.661 96.1679 230.066C96.1679 239.788 96.0112 248.411 95.8545 249.248C95.5934 250.711 95.7501 250.868 98.9359 252.488C104.263 255.206 104.524 255.624 105.151 262.575C105.464 266.234 105.516 273.76 105.255 282.332C105.046 289.963 104.837 300.521 104.785 305.852C104.733 312.437 104.42 316.932 103.845 319.964C102.853 325.033 101.391 337.368 101.391 340.818C101.391 343.849 99.7715 347.09 97.5258 348.605C95.8545 349.755 84.0514 354.198 75.6953 356.863C71.4127 358.222 70.6816 358.797 71.5694 359.895C72.0394 360.47 70.6816 361.306 64.9889 364.076C57.3117 367.839 53.1336 370.662 51.2012 373.327L50 375L54.1781 374.634C56.4238 374.425 61.0197 373.798 64.31 373.275C67.6524 372.7 73.5018 371.916 77.3665 371.446C84.7826 370.662 104.524 369.773 104.524 370.243C104.524 370.4 102.801 371.602 100.712 372.909C98.6225 374.216 96.4813 375.784 95.959 376.359C94.9667 377.456 94.9667 377.456 96.2201 377.456C96.8991 377.456 100.555 376.986 104.263 376.463C112.671 375.209 121.184 374.477 136.382 373.798C142.858 373.484 150.013 373.014 152.259 372.752C154.557 372.439 157.011 372.23 157.743 372.23L159.1 372.282L157.534 373.588C154.139 376.515 139.254 383.049 132.57 384.512C129.227 385.244 128.6 385.557 129.123 386.132C129.958 387.178 134.502 387.073 141.03 385.819C144.059 385.244 153.042 383.728 160.928 382.421C168.814 381.115 178.058 379.495 181.401 378.815C184.743 378.188 187.407 377.822 187.25 378.031C187.146 378.24 185.109 379.547 182.707 380.906C177.327 383.989 175.029 385.766 173.828 387.857C172.888 389.477 172.888 389.477 174.089 389.477C176.648 389.477 182.393 388.327 189.392 386.394C200.15 383.414 204.798 382.421 219.735 379.808C237.074 376.777 241.461 376.515 257.286 377.927C264.127 378.554 272.797 379.024 276.505 379.024C281.048 379.024 284.809 379.338 288.256 380.017C291.024 380.592 296.873 381.324 301.208 381.585C310.4 382.212 322.516 384.408 335.259 387.7C340.273 388.955 344.973 390 345.704 390C347.01 389.948 346.749 389.582 342.78 385.766C339.228 382.421 337.4 381.115 333.118 379.024C330.193 377.613 326.903 376.306 325.858 376.097C323.508 375.679 323.247 374.843 325.441 374.843C328 374.843 355.575 380.488 364.871 382.892C366.543 383.362 368.423 383.728 369.049 383.728C370.721 383.676 366.647 380.435 361.477 377.77C353.486 373.588 353.382 373.693 365.655 374.007C380.435 374.425 392.133 375.627 401.691 377.717C406.182 378.711 411.092 379.651 412.658 379.86L415.531 380.174L413.494 378.031C412.345 376.881 410.517 375.47 409.368 374.895C408.167 374.268 407.592 373.745 407.958 373.536C408.324 373.327 414.747 373.118 422.216 373.118C435.22 373.066 441.957 373.588 448.538 375.156L450 375.522L448.433 373.798C445.456 370.609 426.55 362.038 423.312 362.404C422.163 362.56 421.485 362.351 421.276 361.881C420.806 360.627 421.014 360.208 422.059 360.208C422.581 360.208 424.305 359.947 425.819 359.633L428.535 359.006L427.02 357.804C426.185 357.177 424.461 356.236 423.156 355.714C421.85 355.243 419.134 353.936 417.098 352.891C415.113 351.794 411.248 350.017 408.532 348.919C403.101 346.619 399.863 344.215 398.662 341.445C398.139 340.243 397.722 336.741 397.46 331.723C397.199 327.385 396.782 321.897 396.468 319.441C395.789 314.005 395.163 269.527 395.685 261.321L396.05 255.363L398.401 254.736C399.706 254.37 401.43 253.429 402.213 252.645L403.675 251.182L403.884 232.366C404.145 212.296 404.093 211.721 401.586 209.944C399.027 208.167 387.799 205.344 380.644 204.665L376.622 204.299V212.714C376.622 220.972 376.622 221.129 377.98 222.697C378.816 223.742 380.278 224.578 382.002 225.101C383.464 225.519 384.717 225.885 384.822 225.885C384.926 225.885 384.978 222.697 384.978 218.829C384.978 214.961 385.031 211.773 385.135 211.773C385.24 211.773 387.276 212.452 389.679 213.341C392.133 214.177 395.267 215.066 396.677 215.223C399.236 215.588 399.236 215.588 398.139 216.529C396.99 217.418 396.99 217.679 396.99 232.418C396.99 241.721 396.782 247.784 396.468 248.411C395.685 249.823 393.961 249.666 391.246 247.784C384.352 243.133 378.92 241.46 362.103 238.847C352.233 237.331 350.196 237.226 338.497 237.174C327.686 237.174 324.448 237.331 317.763 238.324C313.376 239.004 309.198 239.474 308.363 239.369C305.96 239.108 305.542 237.383 305.438 228.028C305.334 218.149 305.595 217.522 310.556 215.588C312.227 214.961 314.003 214.073 314.473 213.602C315.309 212.818 315.465 212.923 316.249 214.595C316.719 215.588 317.084 217.679 317.084 219.352C317.084 221.86 317.241 222.278 317.92 222.017C318.39 221.86 319.174 221.703 319.748 221.703C320.636 221.703 320.74 221.285 320.74 218.62C320.74 216.059 320.949 215.223 322.098 213.916C323.613 212.139 326.067 211.25 329.828 211.25H332.334L331.969 214.752L331.603 218.202L334.424 217.888C335.938 217.679 337.714 217.522 338.341 217.522C339.281 217.522 339.489 217.104 339.803 214.909L340.168 212.296H342.31C343.511 212.296 344.764 212.505 345.078 212.714C346.174 213.445 346.853 215.379 346.853 217.94C346.853 220.972 345.861 222.122 342.884 222.54C341.735 222.697 340.012 222.906 339.019 223.062L337.244 223.376L340.064 225.101L342.832 226.826L340.743 227.191C339.489 227.348 338.079 228.08 337.4 228.812C336.774 229.491 336.304 230.066 336.46 230.066C336.565 230.118 341.474 230.327 347.376 230.589C355.941 230.955 359.597 231.373 365.55 232.627C369.676 233.516 373.541 234.352 374.115 234.561C376.518 235.293 372.81 231.529 368.318 228.55L363.827 225.623L367.117 225.467L370.355 225.31V215.484V205.606L368.632 203.097C367.639 201.686 365.864 198.759 364.61 196.668C363.357 194.525 361.007 191.285 359.388 189.56C354.322 184.124 354.269 183.863 353.643 168.444L353.225 156.685L354.478 153.287C355.418 150.883 355.68 149.263 355.471 148.008C355.053 145.395 353.068 140.169 352.546 140.169C351.919 140.169 349.621 144.872 349.204 147.068C348.995 148.217 349.151 149.942 349.674 151.667C350.353 153.914 350.509 157.207 350.509 168.863C350.509 186.058 350.823 184.908 343.563 193.271C336.199 201.79 334.058 203.358 328.104 204.456C326.328 204.769 320.74 206.442 315.674 208.114C310.608 209.839 306.378 211.146 306.221 210.989C305.438 210.257 305.125 201.006 305.595 192.696C305.856 187.522 306.221 177.33 306.326 170.065C306.483 160.239 306.691 156.685 307.214 156.057C307.579 155.639 309.303 154.594 311.026 153.81C316.667 151.197 316.301 152.869 316.144 131.127C315.935 109.593 316.092 110.325 311.601 108.652C307.214 107.032 299.589 105.203 295.463 104.837L291.494 104.471V112.677C291.494 121.98 291.964 123.809 294.732 125.534C297.082 126.945 296.142 126.841 291.128 125.064C285.958 123.234 285.958 123.234 284.913 121.248C284.286 120.046 284.13 118.844 284.391 116.701C285.331 107.92 285.331 107.555 284.286 105.882C282.354 102.903 277.549 101.492 269.036 101.492C263.03 101.492 261.777 100.812 260.471 96.9968C260.054 95.6902 258.435 93.1814 256.972 91.4044C252.742 86.3346 252.115 84.5052 252.376 77.972C252.481 74.9406 252.533 69.5049 252.481 65.8985L252.376 59.2608L254.57 59.7834C257.338 60.4106 260.315 60.097 267.313 58.32C273.998 56.6475 277.079 56.752 283.921 58.9472C288.203 60.3061 289.3 60.4629 295.933 60.4629C302.304 60.4629 303.923 60.2538 308.467 58.9994C311.34 58.2154 314.63 56.9088 315.779 56.1248L317.868 54.7136L310.556 54.4C302.566 53.9819 299.328 53.1979 295.985 50.7937L294.001 49.278L296.09 48.6508C298.596 47.919 301.312 45.7761 302.618 43.5287C303.506 41.9607 303.506 41.9085 302.618 41.9085C302.096 41.9607 300.268 42.2743 298.544 42.6924C294.314 43.7378 291.337 43.6855 282.25 42.3788C273.006 41.0722 267.679 41.229 258.121 43.2151C254.57 43.9468 251.593 44.5218 251.488 44.5218C251.123 44.5218 251.958 38.9293 252.637 36.4728C253.316 34.1208 253.264 33.7027 252.429 32.0302C251.384 29.8873 249.817 29.3646 248.512 30.8281ZM244.02 109.279C245.221 110.22 245.274 110.638 245.43 117.328C245.639 125.22 245.744 125.011 241.252 125.011H239.32L239.372 117.799C239.424 113.879 239.268 110.116 239.059 109.436C238.693 108.391 238.85 108.286 240.73 108.286C241.983 108.286 243.289 108.652 244.02 109.279ZM217.333 109.802C219.108 113.199 219.004 123.862 217.019 130.656C215.714 135.151 215.714 135.151 212.319 135.517C208.611 135.883 198.74 138.705 195.136 140.43C191.533 142.102 193.309 142.05 201.142 140.116C208.35 138.391 218.064 137.607 224.435 138.339C227.987 138.757 227.987 138.757 226.472 139.437C225.636 139.803 224.331 140.116 223.6 140.169C222.085 140.221 217.541 142.155 217.959 142.573C218.429 142.991 231.799 141.737 238.745 140.587C249.817 138.757 263.553 139.75 279.743 143.566C288.987 145.761 295.672 147.59 295.672 148.008C295.672 148.74 292.643 149.001 289.3 148.531C287.472 148.27 271.282 148.008 253.316 147.956C225.114 147.852 219.996 147.956 215.243 148.688C207.932 149.838 195.345 151.144 191.585 151.144C189.914 151.144 187.773 150.779 186.728 150.36C183.542 149.054 183.386 147.956 183.386 130.656V115.342L189.705 113.617C193.204 112.677 196.181 112.049 196.39 112.206C196.547 112.415 196.755 115.447 196.86 119.001L197.069 125.43L199.785 124.175C201.299 123.496 204.119 122.555 205.999 122.084L209.499 121.196V119.262C209.499 118.217 209.655 115.551 209.812 113.356L210.178 109.384L213.102 109.175C214.721 109.07 216.184 108.966 216.392 108.913C216.601 108.861 217.019 109.279 217.333 109.802ZM263.605 110.638C264.075 111.84 264.336 114.297 264.336 117.955C264.336 124.123 263.657 125.534 260.732 125.534C257.547 125.534 257.547 125.482 257.547 118.269C257.547 110.011 257.703 109.436 259.845 109.175C260.732 109.07 261.777 108.913 262.143 108.913C262.508 108.861 263.187 109.645 263.605 110.638ZM307.893 114.192L310.974 115.29L310.661 125.743C310.452 131.545 310.295 138.653 310.295 141.527C310.295 145.918 310.138 147.068 309.355 148.061C307.945 149.733 305.647 149.576 302.357 147.486C300.842 146.545 297.709 144.716 295.463 143.461C293.165 142.259 291.18 141.057 291.024 140.9C290.867 140.743 292.538 140.743 294.784 140.953C298.649 141.318 298.91 141.266 299.171 140.221C299.328 139.646 299.641 139.123 299.902 139.123C300.111 139.123 299.954 138.13 299.484 136.876C298.858 135.099 298.701 132.538 298.753 123.705C298.805 117.642 298.962 112.311 299.119 111.84C299.38 111.004 299.589 111.004 302.096 112.049C303.61 112.624 306.221 113.617 307.893 114.192ZM257.286 128.618C257.442 128.879 257.338 129.245 257.024 129.454C256.763 129.611 256.502 129.402 256.502 128.984C256.502 128.043 256.816 127.886 257.286 128.618ZM219.944 136.51C219.944 136.771 219.683 137.033 219.369 137.033C219.108 137.033 219.004 136.771 219.16 136.51C219.317 136.196 219.578 135.987 219.735 135.987C219.839 135.987 219.944 136.196 219.944 136.51ZM278.072 150.465C277.706 150.569 276.975 150.569 276.505 150.465C275.982 150.308 276.296 150.204 277.131 150.204C278.019 150.204 278.385 150.308 278.072 150.465ZM224.017 154.855C226.002 155.535 226.472 156.894 226.002 160.239L225.636 162.538L218.377 162.904C214.356 163.113 211.065 163.479 211.065 163.74C211.065 164.002 211.64 164.211 212.371 164.211C213.624 164.211 213.677 164.315 213.677 167.87V171.528L210.439 171.58C207.41 171.633 207.305 171.685 208.924 172.155C209.864 172.417 211.222 172.992 211.901 173.462C213.102 174.194 213.154 174.194 213.677 172.835C214.147 171.58 214.408 171.424 215.818 171.737C216.758 171.894 218.482 172.051 219.735 172.051H222.033L222.085 175.291L222.19 178.584L222.712 175.291C223.182 172.26 223.339 172.051 224.592 172.051C226.838 172.103 229.971 172.992 230.441 173.723C231.329 175.03 230.911 177.33 229.606 178.584C228.404 179.838 228.039 179.891 222.294 179.891C216.236 179.891 214.565 179.525 213.311 177.852C212.789 177.121 212.58 177.173 211.588 178.427C210.386 179.995 207.827 180.727 205.373 180.152C203.858 179.838 203.754 179.682 203.754 177.33C203.754 174.769 204.328 173.619 206.104 172.678C206.94 172.208 206.47 172.103 203.649 172.051C201.612 172.051 200.098 172.26 200.098 172.573C200.098 172.835 200.568 173.096 201.142 173.096C202.083 173.096 202.187 173.462 202.187 175.971C202.187 178.375 201.926 179.054 200.62 180.57L199.053 182.347L208.402 182.609C216.131 182.818 218.116 183.079 219.735 183.863C221.511 184.699 221.772 185.117 221.928 186.79C222.085 188.462 222.294 188.776 223.339 188.776C224.017 188.776 225.219 189.299 226.002 189.978C227.151 190.971 227.464 191.755 227.673 194.159L227.882 197.138H212.946C203.336 197.138 198.009 197.348 198.009 197.661C198.009 197.922 198.949 198.184 200.098 198.184C202.03 198.184 202.187 198.288 202.187 199.595C202.187 201.267 200.464 205.292 199.21 206.651C198.427 207.539 198.636 207.592 203.649 207.592H208.976V210.623C208.976 214.386 208.141 215.327 204.328 215.797C201.404 216.111 201.038 216.529 202.866 217.365C203.493 217.679 204.38 218.515 204.746 219.299C205.947 221.494 205.007 223.271 201.926 224.839L199.315 226.146L203.075 226.303L206.783 226.46L206.992 228.759C207.201 231.634 206.678 234.247 205.738 234.822C205.373 235.084 204.119 235.606 202.97 235.972C201.038 236.547 201.456 236.599 208.193 236.756C212.214 236.808 217.385 236.652 219.683 236.39C221.981 236.129 224.07 236.077 224.331 236.338C224.54 236.547 224.905 237.854 225.01 239.108L225.271 241.512L221.563 241.878C218.011 242.192 217.855 242.296 218.69 243.185C220.257 244.962 220.936 247.993 220.988 253.69C220.988 260.537 220.466 261.426 216.34 261.426C214.982 261.426 212.371 261.582 210.543 261.792L207.305 262.105L207.618 260.485C208.611 255.363 208.715 255.833 206.417 255.467C203.44 254.997 202.03 255.729 200.881 258.394C199.053 262.628 197.33 263.464 194.823 261.478L193.517 260.485L193.413 220.083C193.361 197.818 193.152 175.239 192.995 169.908C192.525 155.901 192.786 155.378 201.299 154.908L205.843 154.698V157.207C205.791 158.618 205.582 160.814 205.321 162.12L204.903 164.472L205.895 163.218C206.574 162.382 206.887 161.179 206.887 159.298C206.887 156.476 207.41 155.378 209.237 154.333C210.543 153.549 221.458 153.967 224.017 154.855ZM297.186 154.489C300.111 156.057 300.007 153.862 299.902 208.846C299.85 240.676 299.589 259.858 299.275 260.433C298.544 261.844 296.873 262.575 294.209 262.628C291.18 262.628 289.927 261.269 289.927 257.976V255.676H286.428C278.489 255.676 277.184 254.422 277.497 247.052L277.706 242.087H276.191C273.946 242.087 272.953 240.781 273.11 238.01C273.162 236.704 273.319 235.554 273.476 235.397C273.58 235.24 276.609 235.554 280.108 236.024C287.002 236.913 293.06 237.122 292.225 236.442C291.964 236.181 290.606 235.554 289.248 235.084C285.958 233.829 285.383 232.627 286.219 228.759L286.846 225.885L291.128 225.833C295.097 225.78 295.254 225.728 293.478 225.205C292.382 224.892 291.494 224.474 291.494 224.212C291.494 224.003 289.77 223.794 287.733 223.794C285.644 223.794 283.033 223.637 281.989 223.481L280.004 223.115V219.456V215.797L284.025 216.163C291.024 216.79 290.762 216.634 291.389 220.292L291.964 223.533L291.703 220.292C291.494 217.522 291.598 217.052 292.382 216.843C293.008 216.686 292.434 216.216 290.449 215.327C286.95 213.707 286.271 212.923 285.905 210.309C285.488 207.33 286.532 206.546 290.971 206.546H294.523L292.799 204.822C291.807 203.829 290.867 202.417 290.658 201.686C290.188 199.7 291.598 197.661 293.478 197.609C294.262 197.609 295.358 197.4 295.933 197.191C296.716 196.877 296.142 196.616 293.53 196.145C291.65 195.832 289.143 195.57 287.942 195.57H285.749V192.225V188.933L283.294 188.567C279.691 188.096 279.325 187.731 279.743 185.065L280.056 182.765L286.375 182.922C291.233 183.079 292.799 182.974 293.113 182.399C293.844 181.25 293.687 180.988 291.441 180.413L289.3 179.838L289.614 176.598C289.822 174.821 290.136 172.835 290.24 172.26C290.501 171.267 290.24 171.11 287.733 170.796C283.869 170.274 282.615 169.333 282.615 167.033C282.615 164.211 283.399 163.166 285.54 163.166C288.465 163.166 290.292 160.97 290.762 156.946L291.128 153.758H293.426C294.679 153.758 296.351 154.071 297.186 154.489ZM144.216 161.284C144.216 161.441 144.007 161.702 143.694 161.859C143.433 162.016 143.171 161.911 143.171 161.65C143.171 161.336 143.433 161.075 143.694 161.075C144.007 161.075 144.216 161.179 144.216 161.284ZM228.979 164.838C229.658 165.204 229.867 165.988 229.867 168.706C229.867 171.789 229.762 172.103 228.979 171.789C228.457 171.58 225.845 171.267 223.182 171.11C218.534 170.849 218.325 170.796 218.586 169.751C218.743 169.124 218.899 167.504 218.899 166.145V163.584L223.495 163.95C226.002 164.159 228.457 164.577 228.979 164.838ZM234.567 177.173C234.567 177.957 234.463 177.957 234.045 177.277C233.366 176.232 233.366 175.553 234.045 175.971C234.358 176.128 234.567 176.702 234.567 177.173ZM234.933 185.222C234.776 185.64 234.619 185.483 234.619 184.908C234.567 184.333 234.724 184.02 234.881 184.229C235.037 184.386 235.089 184.856 234.933 185.222ZM287.472 197.452L289.405 197.818V201.581V205.396L285.018 205.292C280.056 205.24 280.004 205.187 280.004 201.111C280.004 197.504 281.884 196.564 287.472 197.452ZM210.439 197.975C212.684 198.602 213.99 203.201 212.528 205.083C211.64 206.18 209.133 206.599 205.895 206.18L203.231 205.867V202.94C203.231 201.32 203.44 199.7 203.702 199.334C204.485 198.079 208.089 197.348 210.439 197.975ZM224.279 198.027C223.6 198.132 222.555 198.132 221.928 198.027C221.25 197.922 221.772 197.818 223.077 197.818C224.383 197.818 224.905 197.922 224.279 198.027ZM229.345 201.006C229.345 202.731 229.031 203.724 228.091 204.822C226.942 206.18 226.524 206.285 223.286 206.285H219.735L218.952 203.829C218.377 201.895 218.325 201.058 218.795 200.013C219.369 198.759 219.578 198.706 224.383 198.706H229.345V201.006ZM248.668 205.553C248.668 207.592 248.668 207.592 246.579 207.592C244.542 207.592 244.49 207.539 245.065 206.39C245.952 204.665 247.728 202.888 248.198 203.201C248.459 203.358 248.668 204.403 248.668 205.553ZM254.048 205.971L255.04 207.592H252.899H250.757V205.187C250.757 202.783 250.757 202.783 251.958 203.515C252.585 203.985 253.525 205.031 254.048 205.971ZM224.749 209.264C224.853 212.609 224.592 214.595 224.017 215.275C223.652 215.745 221.563 215.954 217.019 215.954H210.543V211.773V207.644L213.833 207.435C215.609 207.33 218.795 207.226 220.884 207.174L224.644 207.069L224.749 209.264ZM172.679 210.205C172.836 210.466 172.731 210.728 172.47 210.728C172.157 210.728 171.896 210.466 171.896 210.205C171.896 209.891 172 209.682 172.105 209.682C172.261 209.682 172.523 209.891 172.679 210.205ZM248.668 212.296V214.909H246.84H245.012V212.296V209.682H246.84H248.668V212.296ZM254.413 212.296V214.909H252.585H250.757V212.296V209.682H252.585H254.413V212.296ZM192.63 217.365C192.525 218.202 192.421 217.522 192.421 215.954C192.421 214.386 192.525 213.707 192.63 214.491C192.734 215.327 192.734 216.581 192.63 217.365ZM214.982 218.306C215.818 219.09 216.288 220.188 216.288 221.181C216.288 222.017 216.549 222.749 216.81 222.749C217.124 222.749 217.333 221.442 217.333 219.874C217.333 216.529 218.064 216.216 221.041 218.202C223.861 220.031 224.853 222.697 225.062 228.812L225.271 234.091L218.586 234.456C214.878 234.613 210.961 234.927 209.916 235.136L207.932 235.449V230.746V226.094L210.439 225.362L212.893 224.578L209.969 224.421L207.044 224.265L206.678 221.86C205.999 216.843 205.895 217 210.021 217C213.259 217 213.886 217.156 214.982 218.306ZM230.65 229.021C230.807 229.282 230.702 229.543 230.441 229.543C230.128 229.543 229.867 229.282 229.867 229.021C229.867 228.707 229.971 228.498 230.076 228.498C230.232 228.498 230.494 228.707 230.65 229.021ZM258.957 242.087H261.725V244.596C261.725 246.007 261.568 249.666 261.359 252.697L261.046 258.29H257.547H254.048L253.682 251.6C253.473 247.941 253.212 244.073 253.003 243.028L252.742 241.094L254.465 241.565C255.458 241.878 257.494 242.087 258.957 242.087ZM333.431 241.408C332.752 241.512 331.708 241.512 331.081 241.408C330.402 241.303 330.924 241.199 332.23 241.199C333.536 241.199 334.058 241.303 333.431 241.408ZM239.79 249.927V257.244H237.283H234.724L234.41 250.816C234.254 247.314 233.94 244.021 233.784 243.498C233.47 242.714 233.784 242.61 236.604 242.61H239.79V249.927ZM185.892 245.275L188.608 245.903V253.638C188.608 261.008 188.556 261.426 187.459 262.523C186.415 263.464 185.788 263.569 182.445 263.359C180.356 263.255 178.529 262.994 178.372 262.837C178.111 262.575 182.132 250.188 183.594 246.739C183.856 246.216 183.438 245.694 182.237 245.066C180.356 244.073 180.409 244.073 185.892 245.275ZM272.536 246.634C272.379 247.157 272.274 246.843 272.274 246.007C272.274 245.119 272.379 244.753 272.536 245.066C272.64 245.432 272.64 246.164 272.536 246.634ZM315.57 248.411C323.143 252.175 326.224 259.387 326.799 274.649C327.06 281.757 327.739 286.775 328.522 287.245C328.731 287.402 328.783 285.991 328.679 284.161L328.47 280.816L330.193 281.287C331.186 281.6 332.596 281.809 333.379 281.809C335.781 281.809 334.946 285.311 332.126 287.036C330.507 287.977 330.507 288.081 331.656 288.081C332.805 288.081 332.857 288.238 332.648 290.956C332.387 294.144 331.342 295.712 329.096 296.183L327.686 296.496L328.679 298.43C330.298 301.514 329.775 312.28 327.321 324.668C324.971 336.532 325.075 336.166 323.874 336.166C323.352 336.166 322.725 336.427 322.516 336.741C321.941 337.682 321.263 336.114 321.263 333.762C321.263 332.56 321.524 330.312 321.837 328.797C322.098 327.229 322.464 323.152 322.568 319.702C322.725 316.253 323.038 309.876 323.299 305.59C324.031 295.033 324.031 284.475 323.247 273.133L322.62 263.673L315.727 262.994C311.914 262.628 307.736 262.471 306.483 262.628L304.132 262.941L304.864 260.537C305.281 259.23 305.595 256.199 305.595 253.795C305.595 248.568 305.804 247.889 307.893 247.052C309.877 246.164 311.81 246.53 315.57 248.411ZM124.37 253.011V255.624L127.138 255.938C131.264 256.46 131.316 256.565 130.898 260.798L130.533 264.457L128.13 264.771C126.772 264.927 123.743 265.241 121.393 265.398L117.058 265.764L117.006 263.464C116.954 262.21 116.797 260.589 116.588 259.858C116.275 258.812 116.118 259.23 115.857 261.739C115.7 263.464 115.387 265.293 115.178 265.764C114.917 266.495 115.178 266.652 116.745 266.652H118.625V271.095C118.625 275.433 118.573 275.537 117.372 275.537C116.171 275.537 116.118 275.642 116.379 278.882C116.641 281.705 116.484 282.593 115.596 284.109L114.499 285.991H116.745C120.035 285.991 121.498 287.35 121.445 290.276C121.445 291.479 121.028 293.308 120.505 294.196C119.513 296.183 118.834 295.973 126.981 296.13C132.987 296.235 134.606 296.862 135.651 299.371C137.479 303.761 134.032 306.218 127.034 305.538L123.848 305.172V301.096C123.848 298.691 123.639 296.967 123.325 296.967C123.012 296.967 122.803 298.587 122.803 300.782V304.65L119.826 305.12C116.849 305.643 116.849 305.643 118.26 306.27C119.095 306.636 120.975 306.897 122.49 306.897C125.78 306.897 125.937 307.106 125.937 313.064C125.937 316.253 125.78 316.932 125.049 317.141C123.221 317.716 118.521 320.016 118.73 320.225C118.886 320.382 123.221 320.225 128.444 319.859C133.666 319.545 138.053 319.389 138.21 319.493C138.314 319.65 138.105 321.009 137.688 322.577C137.27 324.145 136.173 329.058 135.338 333.448C133.457 343.065 132.883 344.267 130.219 344.999C129.175 345.313 127.974 345.574 127.66 345.574C127.295 345.574 126.981 346.097 126.981 346.724C126.929 350.33 123.273 354.407 119.304 355.243C117.685 355.557 117.685 355.504 116.849 352.682C115.962 349.598 114.969 348.396 114.969 350.382C114.969 352.368 112.567 356.863 110.896 358.065C109.277 359.215 105.83 360.836 103.636 361.463L102.539 361.829L103.741 357.961C105.307 352.996 106.404 346.567 107.135 337.995C107.449 334.232 108.075 327.699 108.493 323.361C109.068 317.507 109.224 308.308 109.224 286.304C109.172 258.342 109.224 256.983 110.165 255.729C111.522 253.899 115.022 252.175 119.147 251.286C124.527 250.136 124.37 250.084 124.37 253.011ZM192.264 256.042C191.742 256.879 191.69 256.826 191.951 255.676C192.107 254.945 192.316 253.795 192.316 253.063C192.421 252.07 192.473 252.122 192.63 253.429C192.734 254.37 192.577 255.572 192.264 256.042ZM387.642 254.422C390.358 255.781 390.358 255.781 389.888 268.586C389.365 281.6 389.365 280.973 390.253 305.172C390.619 314.423 391.037 321.897 391.246 321.793C391.402 321.688 391.82 325.87 392.186 331.096C392.499 336.323 393.491 344.842 394.379 350.017C396.52 362.926 396.573 362.665 392.917 360.783C390.097 359.32 388.687 357.543 387.59 354.146L386.65 351.062L385.71 352.839C383.934 356.079 382.524 357.229 380.644 356.863C375.108 355.766 375.16 355.818 374.794 352.159C374.585 350.33 374.585 348.344 374.742 347.769C375.055 346.828 374.794 346.567 372.966 346.097C370.042 345.313 368.788 343.954 368.788 341.497C368.736 335.539 367.744 322.629 367.222 321.322C366.908 320.486 366.752 319.754 366.804 319.65C366.908 319.598 369.676 319.859 372.966 320.225C376.257 320.643 379.704 320.957 380.539 320.957L382.106 321.009L380.539 319.964C378.032 318.343 376.57 315.312 376.257 310.817L375.943 306.897H381.532C386.65 306.897 387.067 306.845 386.65 305.956C385.605 304.022 384.404 297.385 384.978 296.705C385.396 296.183 384.404 295.973 380.435 295.712C377.615 295.503 374.324 295.242 373.123 295.085L370.877 294.771V291.217V287.663L375.839 287.297C380.174 286.984 380.696 286.827 380.33 286.043C380.121 285.573 379.651 284.005 379.286 282.593C378.92 281.13 378.555 279.614 378.398 279.144C378.189 278.464 378.711 278.203 380.905 277.942C385.448 277.367 387.067 277.001 387.067 276.583C387.067 276.008 382.733 275.537 382.106 276.06C380.853 277.105 377.667 273.395 377.667 270.886C377.667 269.475 380.069 267.698 382.054 267.698C383.307 267.698 383.464 267.541 382.889 267.175C382.472 266.914 380.8 266.652 379.234 266.652H376.361V262.994C376.361 260.589 376.57 259.335 376.936 259.335C377.301 259.335 378.868 260.014 380.487 260.851L383.412 262.419V258.551C383.412 252.697 383.725 252.436 387.642 254.422ZM198.949 263.359C198.427 263.464 197.591 263.464 197.121 263.359C196.599 263.203 197.017 263.098 198.009 263.098C199.001 263.098 199.419 263.203 198.949 263.359ZM128.496 274.963C129.018 275.276 129.123 276.112 128.809 278.203C128.287 282.332 128.13 282.802 126.459 283.639C124.474 284.684 120.244 284.632 118.73 283.586C117.111 282.489 117.163 279.248 118.782 277.315C119.826 276.112 120.558 275.851 123.273 275.642C125.049 275.537 126.616 275.224 126.772 274.963C127.138 274.388 127.556 274.388 128.496 274.963ZM270.081 278.569C270.081 280.45 270.394 282.018 270.864 282.698C271.961 284.266 275.199 285.05 278.489 284.632L281.205 284.266L280.84 286.304C280.631 287.402 279.638 289.702 278.646 291.322L276.818 294.301L276.714 309.615L276.609 324.929L278.855 329.685C280.056 332.298 281.048 334.703 281.048 335.016C281.048 335.487 278.176 335.643 270.603 335.643C263.239 335.643 260.158 335.487 260.158 335.068C260.158 334.755 261.046 332.56 262.143 330.208L264.075 325.974V316.305C264.075 307.315 263.97 306.427 262.874 304.022C260.315 298.482 255.614 295.399 249.661 295.399C243.132 295.399 238.484 298.169 235.768 303.657C234.358 306.531 234.306 307.002 234.149 315.573L233.94 324.458L236.082 329.476C237.283 332.194 238.223 334.755 238.223 335.068C238.223 335.487 235.194 335.643 227.778 335.643C220.362 335.643 217.333 335.487 217.333 335.068C217.333 334.755 218.011 333.239 218.847 331.776C221.511 327.019 221.772 324.772 221.615 308.779C221.511 295.346 221.406 294.04 220.466 292.576C218.429 289.336 217.959 288.238 217.541 286.304L217.176 284.266L219.996 284.579C223.443 284.998 226.42 284.266 227.517 282.698C227.987 282.018 228.3 280.398 228.3 278.569V275.537H249.19H270.081V278.569ZM330.141 278.882C330.141 279.039 329.932 279.301 329.619 279.457C329.358 279.614 329.096 279.51 329.096 279.248C329.096 278.935 329.358 278.673 329.619 278.673C329.932 278.673 330.141 278.778 330.141 278.882ZM108.023 281.13C107.867 281.653 107.762 281.339 107.762 280.503C107.762 279.614 107.867 279.248 108.023 279.562C108.128 279.928 108.128 280.66 108.023 281.13ZM374.533 296.444C374.533 296.705 374.429 296.967 374.324 296.967C374.168 296.967 373.907 296.705 373.75 296.444C373.593 296.13 373.698 295.921 373.959 295.921C374.272 295.921 374.533 296.13 374.533 296.444ZM380.853 297.28C381.897 297.541 382.68 299.371 383.621 303.291L384.3 306.165H379.965L375.682 306.113L375.369 302.716C375.212 300.834 375.055 298.639 375.055 297.803C375.055 296.339 375.055 296.339 377.562 296.653C378.92 296.862 380.383 297.123 380.853 297.28ZM137.427 318.396C137.427 318.657 137.218 318.918 136.904 318.918C136.643 318.918 136.382 318.657 136.382 318.396C136.382 318.082 136.643 317.873 136.904 317.873C137.218 317.873 137.427 318.082 137.427 318.396ZM332.909 326.706C332.491 328.535 331.394 330.626 330.507 331.358C329.88 331.88 329.723 331.619 329.41 329.581C328.835 325.347 328.888 325.347 331.186 325.347C333.17 325.347 333.222 325.399 332.909 326.706ZM340.586 334.546C340.9 335.382 341.108 336.532 341.004 337.055C340.691 338.675 337.975 335.539 337.975 333.553C337.975 332.142 338.079 332.037 338.967 332.455C339.489 332.769 340.221 333.71 340.586 334.546ZM140.508 341.497C140.456 344.581 139.516 348.292 138.732 348.553C138.419 348.605 137.897 348.501 137.531 348.239C136.957 347.926 137.009 347.194 137.635 344.32C139.046 338.257 140.612 336.793 140.508 341.497ZM405.869 348.71C405.869 348.971 405.764 349.233 405.66 349.233C405.503 349.233 405.242 348.971 405.086 348.71C404.929 348.396 405.033 348.187 405.294 348.187C405.608 348.187 405.869 348.396 405.869 348.71ZM407.436 353.936C407.436 354.198 407.175 354.459 406.861 354.459C406.6 354.459 406.496 354.198 406.652 353.936C406.809 353.623 407.07 353.414 407.227 353.414C407.331 353.414 407.436 353.623 407.436 353.936ZM77.7843 368.937C76.3742 369.041 74.1807 369.041 72.8228 368.937C71.4127 368.832 72.5617 368.78 75.2775 368.78C77.9932 368.78 79.1422 368.832 77.7843 368.937ZM406.234 373.066C406.078 373.223 405.608 373.275 405.242 373.118C404.824 372.961 404.981 372.804 405.556 372.804C406.13 372.752 406.443 372.909 406.234 373.066ZM197.121 383.049C196.755 383.153 196.024 383.153 195.554 383.049C195.032 382.892 195.345 382.787 196.181 382.787C197.069 382.787 197.434 382.892 197.121 383.049Z" fill="#00B1CC"/>
<path d="M202.448 188.252C202.239 188.566 202.761 188.775 203.701 188.775H205.268L205.477 192.277L205.634 195.831L205.738 192.277L205.843 188.775H210.282C212.893 188.775 214.721 188.566 214.721 188.252C214.721 187.939 212.371 187.73 208.767 187.73C205.321 187.73 202.657 187.939 202.448 188.252Z" fill="#00B1CC"/>
<path d="M204.015 242.872C202.657 244.179 202.396 246.112 203.022 250.032L203.388 252.019H206.522H209.655L209.29 249.614C209.133 248.255 208.976 245.903 208.976 244.388V241.565H207.148C205.843 241.565 204.85 241.983 204.015 242.872Z" fill="#00B1CC"/>
<path d="M283.66 246.478V252.019H286.793H289.927V246.792V241.565H288.412C287.577 241.565 286.167 241.409 285.279 241.252L283.66 240.886V246.478Z" fill="#00B1CC"/>
<path d="M116.536 256.773C116.536 257.714 116.641 257.767 117.32 257.244C118.103 256.617 117.946 255.676 117.006 255.676C116.745 255.676 116.536 256.199 116.536 256.773Z" fill="#00B1CC"/>
<path d="M120.453 334.443C121.237 336.429 121.289 340.715 120.558 343.329L119.827 346.099L123.012 346.046C124.788 345.994 125.571 345.837 124.788 345.733C123.169 345.471 123.169 345.576 123.326 337.579L123.378 333.555H121.759C120.349 333.555 120.14 333.712 120.453 334.443Z" fill="#00B1CC"/>
<path d="M377.615 334.861C379.338 336.847 379.338 336.899 379.129 341.237C378.92 345.471 378.92 345.575 380.121 345.575C381.323 345.575 381.323 345.471 381.009 342.021C380.853 340.087 380.957 337.526 381.218 336.324C381.793 333.868 381.845 333.92 377.928 333.24L375.839 332.875L377.615 334.861Z" fill="#00B1CC"/>
</svg>
