<svg width="1000" height="1000" viewBox="0 0 1000 1000" fill="none" xmlns="http://www.w3.org/2000/svg">
<rect width="1000" height="1000" fill="#17151F"/>
<path d="M300.468 233.575C305.227 232.623 310.379 233.151 315.218 233.103C443.43 233.215 571.697 233.007 699.908 233.199C700.156 255.29 699.804 277.372 700.052 299.462C733.329 299.702 766.613 299.366 799.898 299.606C800.026 321.688 800.026 343.787 799.89 365.861C788.747 366.109 777.596 365.773 766.445 366.021C766.253 378.262 766.429 390.503 766.373 402.745C766.429 512.852 766.269 622.999 766.445 733.099C777.604 733.347 788.747 733.011 799.898 733.259C800.034 744.14 800.034 755.021 799.898 765.91C733.289 766.03 666.671 766.03 600.062 765.91C599.926 755.021 599.926 744.14 600.062 733.259C611.213 733.011 622.356 733.347 633.515 733.099C633.707 720.857 633.531 708.616 633.587 696.375C633.531 619.599 633.691 542.807 633.515 466.031C622.364 465.783 611.221 466.119 600.07 465.871C599.83 454.99 600.15 444.109 599.91 433.228C588.767 432.98 577.624 433.316 566.473 433.068C566.225 421.915 566.561 410.77 566.313 399.616C522.11 399.488 477.89 399.496 433.687 399.616C433.439 410.77 433.775 421.915 433.527 433.068C422.376 433.316 411.233 432.98 400.09 433.228C399.85 444.109 400.17 454.99 399.93 465.871C388.779 466.119 377.636 465.783 366.485 466.031C366.293 478.272 366.469 490.514 366.413 502.755C366.469 579.531 366.309 656.323 366.485 733.099C377.644 733.347 388.787 733.011 399.938 733.259C400.074 744.14 400.074 755.021 399.938 765.91C333.329 766.03 266.711 766.03 200.102 765.91C199.966 755.021 199.966 744.14 200.102 733.259C211.253 733.011 222.396 733.347 233.555 733.099C233.747 720.857 233.571 708.616 233.627 696.375C233.571 586.268 233.731 476.12 233.555 366.021C222.404 365.773 211.253 366.109 200.102 365.861C199.974 343.787 199.974 321.688 200.11 299.606C233.387 299.366 266.663 299.702 299.948 299.462C300.124 282.948 299.98 266.435 300.012 249.929C300.1 244.553 299.452 238.864 300.468 233.575Z" fill="#A0A3AE"/>
</svg>
