<svg width="1000" height="1000" viewBox="0 0 1000 1000" fill="none" xmlns="http://www.w3.org/2000/svg">
<path d="M167.447 56.9586C175.379 55.3724 183.965 56.2521 192.031 56.1722C405.716 56.3588 619.495 56.0122 833.18 56.3321C833.593 93.1354 833.007 129.925 833.42 166.729C888.881 167.129 944.356 166.569 999.83 166.969C1000.04 203.759 1000.04 240.575 999.817 277.352C981.245 277.765 962.66 277.205 944.076 277.618C943.756 298.013 944.049 318.407 943.956 338.802C944.049 522.245 943.782 705.755 944.076 889.185C962.674 889.598 981.245 889.038 999.83 889.451C1000.06 907.58 1000.06 925.708 999.83 943.85C888.814 944.05 777.786 944.05 666.77 943.85C666.543 925.708 666.543 907.58 666.77 889.451C685.355 889.038 703.926 889.598 722.524 889.185C722.844 868.791 722.551 848.396 722.644 828.002C722.551 700.09 722.818 572.151 722.524 444.24C703.94 443.826 685.368 444.386 666.783 443.973C666.383 425.845 666.917 407.716 666.517 389.588C647.945 389.175 629.374 389.735 610.789 389.321C610.376 370.74 610.936 352.171 610.522 333.59C536.85 333.377 463.15 333.39 389.478 333.59C389.064 352.171 389.624 370.74 389.211 389.321C370.626 389.735 352.055 389.175 333.483 389.588C333.083 407.716 333.617 425.845 333.217 443.973C314.632 444.386 296.06 443.826 277.476 444.24C277.156 464.634 277.449 485.029 277.356 505.423C277.449 633.335 277.182 761.273 277.476 889.185C296.074 889.598 314.645 889.038 333.23 889.451C333.457 907.58 333.457 925.708 333.23 943.85C222.214 944.05 111.186 944.05 0.169983 943.85C-0.056661 925.708 -0.056661 907.58 0.169983 889.451C18.7548 889.038 37.3263 889.598 55.9244 889.185C56.2444 868.791 55.9511 848.396 56.0444 828.002C55.9511 644.558 56.2177 461.048 55.9244 277.618C37.3396 277.205 18.7548 277.765 0.169983 277.352C-0.043329 240.575 -0.0433262 203.759 0.183318 166.969C55.6444 166.569 111.106 167.129 166.58 166.729C166.873 139.216 166.633 111.704 166.687 84.2045C166.833 75.2469 165.753 65.7695 167.447 56.9586Z" fill="#341A34"/>
</svg>
