<svg width="500" height="500" viewBox="0 0 500 500" fill="none" xmlns="http://www.w3.org/2000/svg">
<path d="M130.281 90.3454C133.136 89.7738 136.227 90.0909 139.131 90.062C216.058 90.1293 293.018 90.0044 369.945 90.1197C370.094 103.382 369.882 116.64 370.031 129.902C389.997 130.046 409.968 129.845 429.939 129.989C430.016 143.246 430.016 156.514 429.934 169.766C423.248 169.915 416.558 169.714 409.867 169.862C409.752 177.212 409.858 184.561 409.824 191.911C409.858 258.016 409.762 324.146 409.867 390.247C416.563 390.396 423.248 390.194 429.939 390.343C430.02 396.876 430.02 403.408 429.939 409.946C389.973 410.018 350.003 410.018 310.037 409.946C309.956 403.408 309.956 396.876 310.037 390.343C316.728 390.194 323.413 390.396 330.109 390.247C330.224 382.897 330.118 375.548 330.152 368.199C330.118 322.104 330.214 276.001 330.109 229.906C323.418 229.757 316.733 229.959 310.042 229.81C309.898 223.277 310.09 216.745 309.946 210.212C303.26 210.063 296.575 210.265 289.884 210.116C289.735 203.42 289.937 196.728 289.788 190.032C263.266 189.956 236.734 189.96 210.212 190.032C210.063 196.728 210.265 203.42 210.116 210.116C203.425 210.265 196.74 210.063 190.054 210.212C189.91 216.745 190.102 223.277 189.958 229.81C183.267 229.959 176.582 229.757 169.891 229.906C169.776 237.256 169.882 244.605 169.848 251.954C169.882 298.049 169.786 344.152 169.891 390.247C176.587 390.396 183.272 390.194 189.963 390.343C190.044 396.876 190.044 403.408 189.963 409.946C149.997 410.018 110.027 410.018 70.0612 409.946C69.9796 403.408 69.9796 396.876 70.0612 390.343C76.7517 390.194 83.4375 390.396 90.1328 390.247C90.248 382.897 90.1424 375.548 90.176 368.199C90.1424 302.093 90.2384 235.963 90.1328 169.862C83.4423 169.714 76.7517 169.915 70.0612 169.766C69.9844 156.514 69.9844 143.246 70.066 129.989C90.032 129.845 109.998 130.046 129.969 129.902C130.074 119.988 129.988 110.073 130.007 100.164C130.06 96.9358 129.671 93.5206 130.281 90.3454Z" fill="#341A34"/>
</svg>
