<svg width="1000" height="1000" viewBox="0 0 1000 1000" fill="none" xmlns="http://www.w3.org/2000/svg">
<path d="M233.957 145.766C240.303 144.498 247.172 145.202 253.625 145.138C424.573 145.287 595.596 145.01 766.544 145.266C766.875 174.692 766.405 204.107 766.736 233.533C811.105 233.853 855.484 233.405 899.864 233.725C900.035 263.14 900.035 292.577 899.853 321.982C884.996 322.312 870.128 321.865 855.26 322.195C855.005 338.501 855.239 354.808 855.164 371.114C855.239 517.786 855.026 664.511 855.26 811.173C870.139 811.503 884.996 811.055 899.864 811.386C900.045 825.88 900.045 840.375 899.864 854.88C811.052 855.04 722.228 855.04 633.416 854.88C633.235 840.375 633.235 825.88 633.416 811.386C648.284 811.055 663.141 811.503 678.019 811.173C678.275 794.866 678.041 778.56 678.116 762.254C678.041 659.982 678.254 557.689 678.019 455.417C663.152 455.086 648.294 455.534 633.427 455.204C633.107 440.709 633.533 426.215 633.213 411.72C618.356 411.39 603.499 411.837 588.631 411.507C588.3 396.65 588.748 381.804 588.418 366.947C529.48 366.776 470.52 366.787 411.582 366.947C411.252 381.804 411.7 396.65 411.369 411.507C396.501 411.837 381.644 411.39 366.787 411.72C366.467 426.215 366.893 440.709 366.573 455.204C351.706 455.534 336.848 455.086 321.98 455.417C321.725 471.723 321.959 488.03 321.884 504.336C321.959 606.608 321.746 708.901 321.98 811.173C336.859 811.503 351.716 811.055 366.584 811.386C366.765 825.88 366.765 840.375 366.584 854.88C277.772 855.04 188.948 855.04 100.136 854.88C99.9547 840.375 99.9547 825.88 100.136 811.386C115.004 811.055 129.861 811.503 144.74 811.173C144.996 794.866 144.761 778.56 144.836 762.254C144.761 615.582 144.974 468.856 144.74 322.195C129.872 321.865 115.004 322.312 100.136 321.982C99.9653 292.577 99.9653 263.14 100.147 233.725C144.516 233.405 188.884 233.853 233.264 233.533C233.499 211.535 233.307 189.538 233.349 167.551C233.467 160.389 232.603 152.811 233.957 145.766Z" fill="#00B1CC"/>
</svg>
